<?xml version="1.0" encoding="utf-8" ?>
<svg xmlns="http://www.w3.org/2000/svg" xmlns:xlink="http://www.w3.org/1999/xlink" width="116" height="116">
	<path d="M9.44999 24.0256L10.7859 56.2709L10.7386 70.9534L10.7297 84.5058C9.92909 85.1784 9.39109 85.6218 9.2217 86.6891L9.26882 41.5865L9.24737 30.2721C9.24547 28.2844 9.01371 25.9605 9.44999 24.0256Z"/>
	<path d="M11.2078 22.5165C13.6459 21.8627 16.7238 22.1698 19.2575 22.161L33.9864 22.143L73.5 22.1758L100.516 22.141C102.305 22.1875 104.293 22.0516 105.945 22.8121C106.536 23.4922 106.624 24.2327 106.685 25.0964C106.798 26.6973 106.549 28.2828 106.583 29.875L106.582 52.5564L106.741 86.6541C106.147 86.0661 105.689 85.5155 105.271 84.7908L105.285 80.9668C103.98 80.0972 103.297 78.5298 102.568 77.1928L98.1081 68.1082C96.6004 64.9073 94.9692 61.7776 93.668 58.4825C92.6487 55.901 91.7967 53.2551 91.006 50.5957L88.6279 41.4839C88.3878 40.3872 88.453 39.2696 88.129 38.187L88.11 38.125L88.8486 35.31C88.5221 35.0226 88.0492 34.7074 87.9988 34.2512L87.625 34.1275C87.0495 35.8934 86.3834 37.8721 85.2979 39.3972C84.0101 41.4779 82.5174 43.5885 80.8702 45.4042C76.5094 50.2109 71.3715 54.3428 66.4425 58.5421C65.3507 59.4723 63.2678 61.6907 61.9903 62.0415C61.1761 61.5428 60.3992 60.1712 59.797 59.3942C58.8409 58.1607 57.8025 57.0353 56.7142 55.9162C54.333 53.9843 51.9095 52.828 48.9034 52.2303L37.0883 25.323C37.0507 24.9728 36.6778 24.4489 36.5072 24.125C35.8055 23.5248 34.3872 23.7485 33.4991 23.767L11.2078 22.5165Z"/>
	<defs>
		<linearGradient id="gradient_0" gradientUnits="userSpaceOnUse" x1="56.275269" y1="35.543922" x2="46.064583" y2="36.648788">
			<stop offset="0" stop-color="#313031"/>
			<stop offset="1" stop-color="#605F60"/>
		</linearGradient>
	</defs>
	<path fill="url(#gradient_0)" d="M55.3695 50.5425L44.1662 23.9483L50.6613 24.0845C51.9772 24.1571 51.5607 24.3217 52.3608 25.1792C53.1445 26.0192 54.5314 25.7598 55.6239 25.7907C56.7654 26.0084 57.8586 26.0966 59.0158 26.1452C57.8856 26.2898 55.279 25.8508 54.4625 26.2639C55.9227 29.2384 56.2254 32.5758 56.4047 35.8325C56.6188 39.7209 56.7375 43.8943 55.4496 47.6761C55.0488 48.8529 55.3336 49.3472 55.3695 50.5425Z"/>
	<path fill="#D9FFF2" d="M88.8486 35.31C89.078 34.2307 88.5909 32.3657 89.1548 31.4977L89.188 31.4483C89.2597 31.3399 89.332 31.2381 89.4182 31.1403C91.2875 41.5133 95.1151 52.0403 99.6797 61.5036L103.327 68.464C103.867 69.4321 104.891 70.8232 105.156 71.8709C105.858 74.6433 104.939 78.0964 105.285 80.9668C103.98 80.0972 103.297 78.5298 102.568 77.1928L98.1081 68.1082C96.6004 64.9073 94.9692 61.7776 93.668 58.4825C92.6487 55.901 91.7967 53.2551 91.006 50.5957L88.6279 41.4839C88.3878 40.3872 88.453 39.2696 88.129 38.187L88.11 38.125L88.8486 35.31Z"/>
	<path fill="#E5E5E5" d="M89.0474 23.7292L98.9455 23.7882C100.991 23.7922 103.19 23.6296 105.193 24.0591L105.296 52.54L105.292 60.9496C105.29 62.3311 105.453 63.9665 105.219 65.32C97.3771 53.0288 93.3473 39.4363 89.3885 25.5655L89.0474 23.7292Z"/>
	<path fill="#18111B" d="M55.6239 25.7907C57.7197 25.7883 61.6659 26.2576 63.5 25.2977C63.6558 24.7124 63.8574 24.4637 64.3341 24.0963C66.4826 23.6917 68.7699 23.1422 70.9659 23.5119L89.0474 23.7292L89.3885 25.5655C89.2107 26.0188 88.9427 26.7132 89.1484 27.1908L89.2704 27.4082C89.5116 27.835 89.5451 30.5721 89.4603 31.0996L89.4182 31.1403C89.332 31.2381 89.2597 31.3399 89.188 31.4483L89.1548 31.4977C88.5909 32.3657 89.078 34.2307 88.8486 35.31C88.5221 35.0226 88.0492 34.7074 87.9988 34.2512L87.625 34.1275C87.0495 35.8934 86.3834 37.8721 85.2979 39.3972C84.0101 41.4779 82.5174 43.5885 80.8702 45.4042C76.5094 50.2109 71.3715 54.3428 66.4425 58.5421C65.3507 59.4723 63.2678 61.6907 61.9903 62.0415C61.1761 61.5428 60.3992 60.1712 59.797 59.3942C58.8409 58.1607 57.8025 57.0353 56.7142 55.9162C57.5186 54.6692 55.6418 51.9828 55.3695 50.5425C55.3336 49.3472 55.0488 48.8529 55.4496 47.6761C56.7375 43.8943 56.6188 39.7209 56.4047 35.8325C56.2254 32.5758 55.9227 29.2384 54.4625 26.2639C55.279 25.8508 57.8856 26.2898 59.0158 26.1452C57.8586 26.0966 56.7654 26.0084 55.6239 25.7907Z"/>
	<path fill="#5E0738" d="M70.9659 23.5119L89.0474 23.7292L89.3885 25.5655C89.2107 26.0188 88.9427 26.7132 89.1484 27.1908L89.2704 27.4082C89.5116 27.835 89.5451 30.5721 89.4603 31.0996L89.4182 31.1403C89.332 31.2381 89.2597 31.3399 89.188 31.4483L89.1548 31.4977C88.5909 32.3657 89.078 34.2307 88.8486 35.31C88.5221 35.0226 88.0492 34.7074 87.9988 34.2512L87.625 34.1275C87.0495 35.8934 86.3834 37.8721 85.2979 39.3972L85.3061 37.7512L85.875 37.3775L85.9661 36.5116C86.0212 36.1196 86.1141 35.9779 86.423 35.7458L86.5 35.6887C86.5687 35.3674 86.7728 35.173 86.875 34.8775C87.0329 34.4208 86.8256 34.1485 86.6275 33.75C86.6925 33.7031 86.7484 33.6549 86.8031 33.5957C86.9769 33.4079 87.156 32.9317 87.1419 32.6786L87.125 32.5C87.1783 30.6496 85.3864 30.6415 85.033 29.3231C84.845 28.6216 84.0967 28.2369 83.7271 27.6245C83.3894 27.0649 83.341 26.3634 83.0261 25.7916C82.8381 25.45 82.0323 24.1358 81.7444 24C81.3946 23.835 79.8111 24.0096 79.3536 24.0108L75.3073 23.9983C75.0158 23.9867 74.8235 23.7568 74.5159 23.7447C73.3329 23.6984 72.1901 23.8868 71.0347 23.5338L70.9659 23.5119Z"/>
	<path fill="#E5E5E5" d="M9.44999 24.0256L9.57049 23.4266C10.1455 22.8212 10.4335 22.7586 11.2078 22.5165L33.4991 23.767C34.3872 23.7485 35.8055 23.5248 36.5072 24.125C36.6778 24.4489 37.0507 24.9728 37.0883 25.323L48.9034 52.2303C51.9095 52.828 54.333 53.9843 56.7142 55.9162C57.8025 57.0353 58.8409 58.1607 59.797 59.3942C60.3992 60.1712 61.1761 61.5428 61.9903 62.0415L62.2868 62.746C59.7625 64.512 40.645 80.015 40.1933 80.7834L37.0217 83.3378C36.364 83.7994 35.4359 84.6682 34.7205 84.953C33.3048 85.5166 13.9909 85.0621 11.1325 85.0214L10.7297 84.5058L10.7386 70.9534L10.7859 56.2709L9.44999 24.0256Z"/>
	<path fill="#E01617" d="M33.4991 23.767C34.3872 23.7485 35.8055 23.5248 36.5072 24.125C36.6778 24.4489 37.0507 24.9728 37.0883 25.323L36.875 25.9004L36.9165 25.969C37.2389 26.5172 37.3283 27.1914 37.5862 27.7773C38.3755 29.5694 39.2466 31.5223 39.7568 33.4146L44.5119 44.306C45.3667 46.3506 46.209 50.1305 47.7235 51.625L47.5 51.9361C46.1344 52.0798 44.6372 52.269 43.3186 52.655C43.5669 50.1919 42.5279 48.0348 41.6223 45.8118C40.8447 43.9029 40.0734 41.8154 39.6006 39.8102C39.0578 38.9088 38.7999 37.7613 38.4049 36.7831C37.283 34.0047 36.2482 31.1241 34.9098 28.4458C34.3297 27.2761 33.1551 24.9548 33.4991 23.767Z"/>
	<path fill="#5E0738" d="M9.44999 24.0256L9.57049 23.4266C10.1455 22.8212 10.4335 22.7586 11.2078 22.5165L33.4991 23.767C33.1551 24.9548 34.3297 27.2761 34.9098 28.4458C36.2482 31.1241 37.283 34.0047 38.4049 36.7831C38.7999 37.7613 39.0578 38.9088 39.6006 39.8102C40.0734 41.8154 40.8447 43.9029 41.6223 45.8118C42.5279 48.0348 43.5669 50.1919 43.3186 52.655C34.6711 55.389 26.8971 60.6771 19.3122 65.5355L13.9034 69.0242C12.9247 69.679 11.8962 70.6677 10.7386 70.9534L10.7859 56.2709L9.44999 24.0256Z"/>
	<defs>
		<linearGradient id="gradient_1" gradientUnits="userSpaceOnUse" x1="16.182251" y1="21.166374" x2="24.633957" y2="40.840389">
			<stop offset="0" stop-color="#0C0027"/>
			<stop offset="1" stop-color="#3C0037"/>
		</linearGradient>
	</defs>
	<path fill="url(#gradient_1)" d="M9.44999 24.0256L9.57049 23.4266C10.1455 22.8212 10.4335 22.7586 11.2078 22.5165L33.4991 23.767C33.1551 24.9548 34.3297 27.2761 34.9098 28.4458L34.8725 30.875L34.5816 30.9184C34.1752 29.7347 34.7806 28.6821 33.8742 27.8365C33.9484 31.1822 34.2022 34.7575 31.6257 37.3733C30.3957 38.6221 29.0088 39.124 27.4242 39.7896C25.2941 40.6843 23.1509 41.527 20.9108 42.073L15.4509 43.1419C14.6537 43.3327 13.7461 43.8363 12.917 43.847C12.6826 43.8501 12.4774 43.7582 12.26 43.6856C12.0547 43.6171 11.7944 43.6526 11.5805 43.6701C10.9467 44.5797 11.4069 49.6261 11.3419 50.9994C11.3165 51.5355 11.0964 52.058 11.0509 52.6069C10.9527 53.7905 11.001 55.114 10.7859 56.2709L9.44999 24.0256Z"/>
	<defs>
		<linearGradient id="gradient_2" gradientUnits="userSpaceOnUse" x1="57.376038" y1="93.300018" x2="57.371986" y2="89.201714">
			<stop offset="0" stop-color="#87878B"/>
			<stop offset="1" stop-color="#A8A6AB"/>
		</linearGradient>
	</defs>
	<path fill="url(#gradient_2)" d="M85.2979 39.3972C86.3834 37.8721 87.0495 35.8934 87.625 34.1275L87.9988 34.2512C88.0492 34.7074 88.5221 35.0226 88.8486 35.31L88.11 38.125L88.129 38.187C88.453 39.2696 88.3878 40.3872 88.6279 41.4839L91.006 50.5957C91.7967 53.2551 92.6487 55.901 93.668 58.4825C94.9692 61.7776 96.6004 64.9073 98.1081 68.1082L102.568 77.1928C103.297 78.5298 103.98 80.0972 105.285 80.9668L105.271 84.7908C105.689 85.5155 106.147 86.0661 106.741 86.6541L106.882 88.761L116 88.969L116 93.1616L111.433 93.2858C109.351 93.8299 107.164 93.9955 105.017 93.7557C103.521 93.5885 102.113 93.2199 100.592 93.1742L87.6798 93.1205L19.0411 93.1657C17.3993 93.1744 15.7111 93.1109 14.0791 93.2721C12.3308 93.4446 10.7656 93.8303 8.97656 93.8274C7.15527 93.8244 5.63184 93.4201 3.86377 93.2169C2.61485 93.0734 1.25868 93.1404 0 93.1369L-0 89.3835L0 89.0097C2.91601 88.8905 6.43814 89.434 9.25951 88.8134C9.15761 88.1501 9.22808 87.3663 9.2217 86.6891C9.39109 85.6218 9.92909 85.1784 10.7297 84.5058L11.1325 85.0214C13.9909 85.0621 33.3048 85.5166 34.7205 84.953C35.4359 84.6682 36.364 83.7994 37.0217 83.3378L40.1933 80.7834C40.645 80.015 59.7625 64.512 62.2868 62.746L61.9903 62.0415C63.2678 61.6907 65.3507 59.4723 66.4425 58.5421C71.3715 54.3428 76.5094 50.2109 80.8702 45.4042C82.5174 43.5885 84.0101 41.4779 85.2979 39.3972Z"/>
	<path fill="#747478" d="M9.25951 88.8134L14.3224 88.9943C12.5402 89.6134 10.7058 89.2623 8.8652 89.3298C8.49922 89.3432 8.23011 89.5847 7.8748 89.6191C6.79549 89.7235 5.59877 89.6376 4.51168 89.6233C4.13252 90.4373 3.7861 91.3452 3.25659 92.071C2.0094 92.4877 1.57874 91.8522 0.34137 91.8842L0.1275 91.375C0.362415 91.0226 0.381009 90.9757 0.295664 90.5463L-0 89.3835L0 89.0097C2.91601 88.8905 6.43814 89.434 9.25951 88.8134Z"/>
	<path fill="#747478" d="M106.882 88.761L116 88.969L116 93.1616L111.433 93.2858L111.426 93.1525L111 92.875C111.324 92.8124 111.543 92.751 111.811 92.5503C112.091 92.3402 114.373 92.5 114.875 92.5L115 92.125C114.624 92.0074 114.286 91.8713 113.894 91.9807L113.824 92.0035L112.965 91.4837L113.293 90.8487C112.778 90.459 111.823 89.4987 111.281 89.3199C110.572 89.0856 109.404 89.2995 108.647 89.3251C106.409 89.4008 102.803 89.7446 100.721 89.0192L100.617 88.9822L106.882 88.761Z"/>
	<path fill="#18111B" d="M37.0217 83.3378L40.1933 80.7834C40.1012 81.4583 40.0447 82.1596 39.8254 82.8071C38.8577 83.4615 38.2509 84.4002 37.373 85.0125L37.21 85.5267L36.3738 85.6875L64.9294 85.1717C68.6436 84.5948 72.8547 85.007 76.634 84.9584C77.3625 84.949 79.4374 85.1052 79.9481 84.7151L80 84.6705C80.6065 84.9962 81.4096 84.9044 82.0832 84.9199L86.8257 85.0068L90.3451 84.9715L92.9143 85.052C93.144 85.5355 93.1832 85.6839 93.7045 85.8781C94.3569 86.1212 95.3395 86.0228 96.044 86.0234C97.8977 86.0249 100.859 86.357 102.487 85.5792C102.587 85.5315 102.585 85.463 102.627 85.3647L102.248 85.193C103.153 85.1859 104.533 85.3571 105.271 84.7908C105.689 85.5155 106.147 86.0661 106.741 86.6541L106.882 88.761L100.617 88.9822L14.3224 88.9943L9.25951 88.8134C9.15761 88.1501 9.22808 87.3663 9.2217 86.6891C9.39109 85.6218 9.92909 85.1784 10.7297 84.5058L11.1325 85.0214C13.9909 85.0621 33.3048 85.5166 34.7205 84.953C35.4359 84.6682 36.364 83.7994 37.0217 83.3378Z"/>
	<path d="M37.0217 83.3378L40.1933 80.7834C40.1012 81.4583 40.0447 82.1596 39.8254 82.8071C38.8577 83.4615 38.2509 84.4002 37.373 85.0125L37.21 85.5267L36.3738 85.6875L64.9294 85.1717L89.2656 85.3634C88.201 85.866 86.5571 85.8863 85.375 85.9317L49.451 86.0248L41.1332 86.0222C39.6421 86.0391 38.019 86.28 36.5532 85.999C35.9936 85.8918 35.8592 85.6954 35.5601 85.25C35.8929 84.9673 36.2105 84.7973 36.6106 84.625L37.0217 83.3378Z"/>
	<defs>
		<linearGradient id="gradient_3" gradientUnits="userSpaceOnUse" x1="37.994267" y1="89.391716" x2="80.628052" y2="70.283257">
			<stop offset="0" stop-color="#00000B"/>
			<stop offset="1" stop-color="#434041"/>
		</linearGradient>
	</defs>
	<path fill="url(#gradient_3)" d="M62.2868 62.746C63.0766 62.4039 63.9755 61.5239 64.6719 60.9868L71.5204 55.3412L72.0381 55.5582C71.4373 56.2446 70.9387 56.8385 70.618 57.701L70.9838 58.0128L71.3773 57.662C72.4796 63.1053 76.6331 68.698 79.5652 73.3485C81.0192 75.6547 82.3485 78.1111 83.9887 80.2936C84.2186 80.5995 85.8795 83.0307 85.8322 83.1997C85.806 83.2934 85.5379 83.5714 85.5419 83.6424C85.5454 83.705 85.8499 83.9195 85.8775 84C85.8801 84.0075 85.7598 84.2898 85.7985 84.4472L87 84.6223L86.9698 84.6822L86.8257 85.0068L82.0832 84.9199C81.4096 84.9044 80.6065 84.9962 80 84.6705L79.9481 84.7151C79.4374 85.1052 77.3625 84.949 76.634 84.9584C72.8547 85.007 68.6436 84.5948 64.9294 85.1717L36.3738 85.6875L37.21 85.5267L37.373 85.0125C38.2509 84.4002 38.8577 83.4615 39.8254 82.8071C40.0447 82.1596 40.1012 81.4583 40.1933 80.7834C40.645 80.015 59.7625 64.512 62.2868 62.746Z"/>
	<path d="M85.2979 39.3972C86.3834 37.8721 87.0495 35.8934 87.625 34.1275L87.9988 34.2512C88.0492 34.7074 88.5221 35.0226 88.8486 35.31L88.11 38.125L88.129 38.187C88.453 39.2696 88.3878 40.3872 88.6279 41.4839L91.006 50.5957C91.7967 53.2551 92.6487 55.901 93.668 58.4825C94.9692 61.7776 96.6004 64.9073 98.1081 68.1082L102.568 77.1928C103.297 78.5298 103.98 80.0972 105.285 80.9668L105.271 84.7908C104.533 85.3571 103.153 85.1859 102.248 85.193L102.627 85.3647C102.585 85.463 102.587 85.5315 102.487 85.5792C100.859 86.357 97.8977 86.0249 96.044 86.0234C95.3395 86.0228 94.3569 86.1212 93.7045 85.8781C93.1832 85.6839 93.144 85.5355 92.9143 85.052L90.3451 84.9715L86.8257 85.0068L86.9698 84.6822L87 84.6223L85.7985 84.4472C85.7598 84.2898 85.8801 84.0075 85.8775 84C85.8499 83.9195 85.5454 83.705 85.5419 83.6424C85.5379 83.5714 85.806 83.2934 85.8322 83.1997C85.8795 83.0307 84.2186 80.5995 83.9887 80.2936C82.3485 78.1111 81.0192 75.6547 79.5652 73.3485C76.6331 68.698 72.4796 63.1053 71.3773 57.662L70.9838 58.0128L70.618 57.701C70.9387 56.8385 71.4373 56.2446 72.0381 55.5582L71.5204 55.3412L64.6719 60.9868C63.9755 61.5239 63.0766 62.4039 62.2868 62.746L61.9903 62.0415C63.2678 61.6907 65.3507 59.4723 66.4425 58.5421C71.3715 54.3428 76.5094 50.2109 80.8702 45.4042C82.5174 43.5885 84.0101 41.4779 85.2979 39.3972Z"/>
	<path fill="#A0A19E" d="M77.5316 50.7212C77.2535 54.8772 80.0985 59.7483 81.7708 63.5147C81.6097 63.6937 81.4591 63.8737 81.2616 64.0141C80.8825 63.3338 80.6646 62.5436 80.2631 61.8938C80.0693 61.5802 79.5575 61.2206 79.4558 60.899C79.2318 60.1907 78.1077 59.4017 77.5753 58.8351C77.1087 58.3386 76.7311 57.7127 76.1791 57.1816C75.6554 55.7373 75.8837 54.4674 75.3267 53.0712L77.5316 50.7212Z"/>
	<defs>
		<linearGradient id="gradient_4" gradientUnits="userSpaceOnUse" x1="83.876343" y1="76.78508" x2="88.653061" y2="72.778938">
			<stop offset="0" stop-color="#6D686C"/>
			<stop offset="1" stop-color="#9BA098"/>
		</linearGradient>
	</defs>
	<path fill="url(#gradient_4)" d="M76.1791 57.1816C76.7311 57.7127 77.1087 58.3386 77.5753 58.8351C78.1077 59.4017 79.2318 60.1907 79.4558 60.899C79.5575 61.2206 80.0693 61.5802 80.2631 61.8938C80.6646 62.5436 80.8825 63.3338 81.2616 64.0141C81.4591 63.8737 81.6097 63.6937 81.7708 63.5147L92.9143 85.052L90.3451 84.9715L90.1031 83.498C89.4809 83.1734 89.2334 82.672 88.9133 82.0729L88.75 82.375L88.3687 82.1262L88.6013 81.6698C88.2437 80.9844 86.9825 78.8504 86.3775 78.4132C85.9564 78.1089 85.8474 77.5754 85.5559 77.1559C83.9391 74.8286 82.5365 72.1421 81.2316 69.625C80.9042 68.9933 80.4847 67.654 79.9376 67.2435C79.8048 67.1439 79.9364 67.0703 79.9104 66.9375C79.8582 66.6705 79.5932 66.2575 79.4723 66C78.1022 63.0836 76.9547 60.3151 76.1791 57.1816Z"/>
	<defs>
		<linearGradient id="gradient_5" gradientUnits="userSpaceOnUse" x1="78.491226" y1="71.750648" x2="80.912323" y2="70.30687">
			<stop offset="0" stop-color="#4D4D4C"/>
			<stop offset="1" stop-color="#656464"/>
		</linearGradient>
	</defs>
	<path fill="url(#gradient_5)" d="M72.0381 55.5582C72.5873 55.5388 74.7859 53.5108 75.3267 53.0712C75.8837 54.4674 75.6554 55.7373 76.1791 57.1816C76.9547 60.3151 78.1022 63.0836 79.4723 66C79.5932 66.2575 79.8582 66.6705 79.9104 66.9375C79.9364 67.0703 79.8048 67.1439 79.9376 67.2435C80.4847 67.654 80.9042 68.9933 81.2316 69.625C82.5365 72.1421 83.9391 74.8286 85.5559 77.1559C85.8474 77.5754 85.9564 78.1089 86.3775 78.4132C86.9825 78.8504 88.2437 80.9844 88.6013 81.6698L88.3687 82.1262L88.75 82.375L88.9133 82.0729C89.2334 82.672 89.4809 83.1734 90.1031 83.498L90.3451 84.9715L86.8257 85.0068L86.9698 84.6822L87 84.6223L85.7985 84.4472C85.7598 84.2898 85.8801 84.0075 85.8775 84C85.8499 83.9195 85.5454 83.705 85.5419 83.6424C85.5379 83.5714 85.806 83.2934 85.8322 83.1997C85.8795 83.0307 84.2186 80.5995 83.9887 80.2936C82.3485 78.1111 81.0192 75.6547 79.5652 73.3485C76.6331 68.698 72.4796 63.1053 71.3773 57.662L70.9838 58.0128L70.618 57.701C70.9387 56.8385 71.4373 56.2446 72.0381 55.5582Z"/>
	<path fill="#743A33" d="M85.2979 39.3972C86.3834 37.8721 87.0495 35.8934 87.625 34.1275L87.9988 34.2512C88.0492 34.7074 88.5221 35.0226 88.8486 35.31L88.11 38.125L88.129 38.187C88.453 39.2696 88.3878 40.3872 88.6279 41.4839L91.006 50.5957C91.7967 53.2551 92.6487 55.901 93.668 58.4825C94.9692 61.7776 96.6004 64.9073 98.1081 68.1082L102.568 77.1928C103.297 78.5298 103.98 80.0972 105.285 80.9668L105.271 84.7908C104.533 85.3571 103.153 85.1859 102.248 85.193L99.875 84.8725C99.337 84.3683 98.7167 83.8781 98.4457 83.1751C97.7204 81.2939 96.7753 79.2983 95.8775 77.5C95.5809 76.9058 95.1396 76.4767 94.933 75.8069C94.1028 73.116 91.9967 70.7197 91.183 68.0569C90.8685 67.028 90.2407 66.0758 89.933 65.0569L88.433 61.3069C88.314 60.9122 88.1695 60.525 87.9328 60.1851L87.8896 60.125C87.9436 59.5618 87.2967 57.6812 86.9278 57.1895L86.8775 57.125C86.9525 56.4998 86.3283 54.7345 85.9234 54.1851L85.8775 54.125C85.9306 53.5166 85.9088 53.2053 85.5927 52.6574C85.1324 51.8598 85.2407 50.6898 84.6778 49.9395C84.2645 49.3885 84.5704 48.0393 84.1275 47.375C84.1103 46.6434 83.9566 45.5279 84.3064 44.8802C84.7532 44.0529 85.0608 43.0285 85.4519 42.1527C85.6888 41.6222 85.6613 41.3941 85.4612 40.875C85.2447 41.4705 84.5626 42.1676 84.1704 42.6886C82.87 44.4162 81.4994 46.0388 79.9906 47.5862C79.2042 48.3927 77.7822 49.5953 77.5316 50.7212L75.3267 53.0712C74.7859 53.5108 72.5873 55.5388 72.0381 55.5582L71.5204 55.3412L64.6719 60.9868C63.9755 61.5239 63.0766 62.4039 62.2868 62.746L61.9903 62.0415C63.2678 61.6907 65.3507 59.4723 66.4425 58.5421C71.3715 54.3428 76.5094 50.2109 80.8702 45.4042C82.5174 43.5885 84.0101 41.4779 85.2979 39.3972Z"/>
</svg>
